<svg xmlns="http://www.w3.org/2000/svg" xmlns:xlink="http://www.w3.org/1999/xlink" width="512" zoomAndPan="magnify" viewBox="0 0 384 383.999986" height="512" preserveAspectRatio="xMidYMid meet" version="1.0"><defs><clipPath id="462a9df2f5"><path d="M 54.667969 54 L 322 54 L 322 322 L 54.667969 322 Z M 54.667969 54 " clip-rule="nonzero"/></clipPath></defs><g clip-path="url(#462a9df2f5)"><path fill="#8062d6" d="M 187.957031 321.246094 C 114.371094 321.246094 54.667969 261.550781 54.667969 187.960938 C 54.667969 114.375 114.371094 54.671875 187.957031 54.671875 C 261.546875 54.671875 321.242188 114.375 321.242188 187.960938 C 321.242188 261.550781 261.546875 321.246094 187.957031 321.246094 Z M 187.957031 297.015625 C 248.171875 297.015625 297.011719 248.175781 297.011719 187.960938 C 297.011719 127.753906 248.171875 78.90625 187.957031 78.90625 C 127.75 78.90625 78.902344 127.753906 78.902344 187.960938 C 78.902344 248.175781 127.75 297.015625 187.957031 297.015625 Z M 216.796875 166.882812 C 215.976562 163.539062 214.777344 160.445312 213.261719 157.667969 C 211.75 154.890625 209.792969 152.429688 207.394531 150.347656 C 205.058594 148.328125 202.28125 146.75 199.0625 145.613281 C 195.910156 144.480469 192.183594 143.910156 187.957031 143.910156 C 181.835938 143.910156 176.535156 145.109375 172.054688 147.632812 C 167.574219 150.09375 163.910156 153.441406 161.070312 157.605469 C 158.296875 161.769531 156.214844 166.441406 154.886719 171.742188 C 153.5 177.042969 152.804688 182.472656 152.804688 187.960938 C 152.804688 193.449219 153.5 198.878906 154.886719 204.179688 C 156.214844 209.480469 158.296875 214.148438 161.070312 218.316406 C 163.910156 222.484375 167.574219 225.832031 172.054688 228.285156 C 176.535156 230.808594 181.835938 232.019531 187.957031 232.019531 C 192.5 232.019531 196.539062 231.257812 199.949219 229.675781 C 203.417969 228.09375 206.382812 225.960938 208.910156 223.179688 C 211.371094 220.464844 213.328125 217.234375 214.714844 213.585938 C 216.105469 209.851562 217.054688 205.949219 217.488281 201.71875 L 237.25 201.71875 C 236.796875 208.65625 235.292969 214.972656 232.757812 220.710938 C 230.238281 226.394531 226.828125 231.324219 222.480469 235.476562 C 218.183594 239.644531 213.074219 242.859375 207.269531 245.136719 C 201.398438 247.414062 195.023438 248.546875 187.957031 248.546875 C 179.375 248.546875 171.613281 246.960938 164.734375 243.746094 C 157.851562 240.597656 152.046875 236.234375 147.316406 230.742188 C 142.582031 225.199219 138.921875 218.820312 136.398438 211.4375 C 133.871094 204.117188 132.609375 196.289062 132.609375 187.960938 C 132.609375 179.757812 133.871094 171.992188 136.398438 164.609375 C 138.921875 157.289062 142.582031 150.851562 147.316406 145.363281 C 152.046875 139.871094 157.851562 135.453125 164.734375 132.234375 C 171.613281 129.015625 179.375 127.375 187.957031 127.375 C 194.457031 127.375 200.578125 128.257812 206.257812 130.027344 C 212 131.855469 217.054688 134.445312 221.398438 137.851562 C 225.828125 141.199219 229.347656 145.363281 232.0625 150.222656 C 234.730469 155.082031 236.425781 160.632812 237.054688 166.882812 Z M 216.796875 166.882812 " fill-opacity="1" fill-rule="nonzero"/></g></svg>